<?xml version="1.0" standalone="no"?>
<!DOCTYPE svg PUBLIC "-//W3C//DTD SVG 20010904//EN"
 "http://www.w3.org/TR/2001/REC-SVG-20010904/DTD/svg10.dtd">
<svg version="1.0" xmlns="http://www.w3.org/2000/svg"
 width="256.000000pt" height="256.000000pt" viewBox="0 0 256.000000 256.000000"
 preserveAspectRatio="xMidYMid meet">

<g transform="translate(0.000000,256.000000) scale(0.100000,-0.100000)"
fill="#000000" stroke="none">
<path d="M0 1280 l0 -1280 1280 0 1280 0 0 1280 0 1280 -1280 0 -1280 0 0
-1280z m1629 858 c1 -66 -3 -108 -9 -108 -6 0 -9 75 -8 208 1 179 2 193 8 107
4 -55 8 -148 9 -207z m18 -5 c-1 -59 -3 -13 -3 102 0 116 2 164 3 108 2 -56 2
-151 0 -210z m33 91 c0 -118 -3 -213 -7 -211 -8 5 -6 427 2 427 3 0 5 -97 5
-216z m30 -16 c0 -128 -3 -228 -7 -222 -8 10 -6 454 2 454 3 0 5 -104 5 -232z
m30 -15 c0 -166 -3 -244 -10 -237 -9 9 -3 484 7 484 1 0 3 -111 3 -247z m59
-92 c1 -153 4 -191 14 -184 31 25 54 21 71 -12 18 -34 50 -41 67 -14 7 12 9
11 9 -2 0 -9 -7 -19 -15 -23 -8 -3 -15 -13 -15 -22 0 -11 10 -6 35 19 19 19
35 40 35 46 0 6 3 10 8 9 14 -5 55 41 49 55 -3 8 -2 19 2 26 5 7 8 0 9 -18 0
-24 -12 -43 -59 -93 -51 -54 -59 -67 -59 -101 0 -21 -4 -36 -8 -33 -5 3 -9 -1
-9 -9 0 -8 4 -12 8 -9 4 2 13 -5 20 -18 9 -16 9 -23 0 -26 -6 -2 -12 -16 -12
-30 -1 -17 -3 -21 -6 -9 -2 9 -9 15 -14 12 -5 -4 -9 20 -9 53 l0 60 -70 68
-70 67 2 261 c1 173 4 237 8 191 4 -38 8 -157 9 -264z m-1270 305 c-2 -2 -15
-9 -29 -16 -23 -12 -24 -12 -11 3 7 10 20 17 29 17 8 0 13 -2 11 -4z m1240
-298 c1 -113 -3 -178 -9 -178 -6 0 -9 86 -8 243 1 162 3 221 8 177 4 -36 8
-145 9 -242z m-593 270 c4 -7 3 -8 -5 -4 -6 4 -18 2 -26 -4 -8 -7 -15 -8 -15
-3 0 23 33 32 46 11z m700 -33 c7 -17 -12 -45 -30 -45 -6 0 -3 7 7 14 9 7 17
18 17 25 0 17 -28 13 -39 -6 -9 -15 -10 -16 -11 -2 0 9 3 19 7 22 12 13 44 7
49 -8z m-316 -9 c0 -8 -4 -18 -10 -21 -6 -4 -10 -63 -10 -146 0 -76 -3 -139
-7 -139 -5 0 -8 72 -8 160 0 146 2 160 18 160 9 0 17 -6 17 -14z m40 -156 c0
-93 -4 -150 -10 -150 -6 0 -10 57 -10 150 0 93 4 150 10 150 6 0 10 -57 10
-150z m-444 118 c4 -5 -97 -8 -224 -8 -134 0 -232 4 -232 9 0 5 4 11 10 13 19
6 439 -7 446 -14z m148 14 c2 -4 1 -14 -5 -22 -7 -12 -9 -12 -9 3 0 11 -4 15
-12 11 -7 -4 -8 -3 -4 4 8 14 23 16 30 4z m733 -14 c-3 -8 -6 -5 -6 6 -1 11 2
17 5 13 3 -3 4 -12 1 -19z m-1232 -182 c17 -16 7 -11 -22 13 -72 58 -183 165
-183 176 0 7 103 -87 205 -189z m-375 174 c0 -5 -4 -10 -10 -10 -5 0 -10 5
-10 10 0 6 5 10 10 10 6 0 10 -4 10 -10z m1135 -258 c-13 -14 -15 14 -8 134
l8 129 3 -129 c1 -71 0 -131 -3 -134z m-946 196 c22 -21 41 -40 41 -41 0 -2
46 -49 102 -105 57 -55 99 -104 95 -109 -8 -7 -278 256 -298 290 -15 26 6 13
60 -35z m770 5 c-15 -18 -34 -1 -25 22 5 14 9 15 21 5 12 -10 13 -16 4 -27z
m648 -40 c-2 -16 -4 -3 -4 27 0 30 2 43 4 28 2 -16 2 -40 0 -55z m-1017 53 c0
-8 -4 -17 -9 -21 -12 -7 -24 12 -16 25 9 15 25 12 25 -4z m-450 -41 c19 -19
32 -35 29 -35 -3 0 -20 16 -39 35 -19 19 -32 35 -29 35 3 0 20 -16 39 -35z
m917 3 c-3 -8 -6 -5 -6 6 -1 11 2 17 5 13 3 -3 4 -12 1 -19z m-700 6 c-3 -3
-12 -4 -19 -1 -8 3 -5 6 6 6 11 1 17 -2 13 -5z m555 -68 c-5 -60 3 -106 18
-106 6 0 11 38 12 88 l2 87 3 -87 c4 -87 21 -123 25 -50 l1 37 4 -37 c3 -28 9
-38 26 -41 12 -2 1 -5 -25 -6 -27 0 -48 -5 -48 -11 0 -6 -30 -11 -67 -11 l-68
-2 60 -8 c33 -4 120 -12 194 -19 125 -10 135 -13 160 -38 14 -15 62 -64 105
-110 l80 -83 -74 -74 c-41 -41 -77 -75 -80 -75 -3 0 -36 28 -75 63 l-69 62
-186 3 -185 3 -43 -42 -42 -43 0 -320 0 -320 37 -38 37 -38 196 0 c249 0 240
-5 238 152 l-1 105 -60 7 c-33 3 -81 6 -107 6 l-48 0 -7 76 c-10 105 -9 106
170 99 77 -3 177 -8 223 -11 l83 -6 -3 -226 -4 -225 -101 -97 -101 -96 -272
-3 c-210 -2 -275 1 -281 10 -6 10 -11 10 -22 1 -12 -11 -33 5 -124 92 l-110
105 -6 258 c-4 142 -10 331 -14 420 l-6 161 49 58 c27 31 71 82 99 113 27 31
38 45 23 32 -15 -13 -32 -20 -38 -16 -8 5 -49 -28 -109 -86 -91 -89 -90 -88
14 19 60 61 114 112 119 112 5 0 1 -9 -9 -20 -10 -11 -16 -20 -14 -20 3 0 23
19 44 42 22 24 28 32 13 19 -30 -27 -38 -19 -11 11 14 16 34 18 189 18 l172 0
-2 81 c-1 44 1 82 3 84 12 13 17 -11 13 -59z m91 57 c4 -3 2 -12 -4 -20 -9
-10 -15 -10 -25 -2 -8 6 -11 15 -8 20 6 11 28 12 37 2z m-802 -60 c13 -16 12
-17 -3 -4 -10 7 -18 15 -18 17 0 8 8 3 21 -13z m874 -3 c11 -17 -5 -32 -21
-19 -7 6 -11 15 -8 20 7 12 21 11 29 -1z m-1070 -160 c160 -153 285 -283 285
-295 0 -5 -12 2 -25 18 -13 15 -26 27 -29 27 -3 0 -7 -69 -9 -152 l-3 -153 -2
158 -2 159 -193 196 c-206 211 -214 226 -22 42z m1422 108 c-3 -8 -6 -5 -6 6
-1 11 2 17 5 13 3 -3 4 -12 1 -19z m266 -33 c-3 -9 -8 -14 -10 -11 -3 3 -2 9
2 15 9 16 15 13 8 -4z m30 -20 c-3 -9 -8 -14 -10 -11 -3 3 -2 9 2 15 9 16 15
13 8 -4z m-61 -17 c-7 -7 -12 -8 -12 -2 0 6 3 14 7 17 3 4 9 5 12 2 2 -3 -1
-11 -7 -17z m-1799 -20 c2 -7 0 -29 -4 -48 -5 -19 -6 -163 -4 -320 3 -157 1
-307 -4 -335 -8 -47 -9 -44 -11 45 -7 346 -4 670 7 670 6 0 13 -6 16 -12z
m1799 -30 c-7 -7 -12 -8 -12 -2 0 6 3 14 7 17 3 4 9 5 12 2 2 -3 -1 -11 -7
-17z m-67 -18 c-10 -11 -20 -18 -22 -16 -6 5 30 44 36 39 2 -1 -4 -12 -14 -23z
m-1105 -13 c0 -1 -37 -38 -82 -82 l-83 -80 80 83 c74 76 85 87 85 79z m1061
-34 c-12 -20 -14 -14 -5 12 4 9 9 14 11 11 3 -2 0 -13 -6 -23z m86 -5 c-3 -7
-5 -2 -5 12 0 14 2 19 5 13 2 -7 2 -19 0 -25z m-1615 -43 c4 -5 7 -17 7 -25
-1 -13 -1 -13 -6 0 -3 8 -15 26 -27 40 -19 22 -19 23 -1 10 11 -8 23 -19 27
-25z m-102 -34 c0 -11 -4 -22 -9 -25 -12 -8 -34 21 -26 34 11 17 35 11 35 -9z
m1900 -27 c0 -9 -6 -14 -12 -11 -7 3 -96 -77 -197 -177 -102 -99 -156 -149
-122 -111 91 102 304 311 319 313 6 1 12 -5 12 -14z m-1828 -282 c2 -78 0
-142 -4 -142 -5 0 -7 98 -6 218 2 217 6 192 10 -76z m-32 41 l-1 -196 48 -45
c32 -31 37 -38 16 -23 -72 50 -73 52 -73 272 0 121 -4 200 -10 204 -5 3 -10
11 -10 18 0 6 7 1 16 -11 13 -19 15 -55 14 -219z m70 100 c0 -85 -4 -123 -10
-113 -5 8 -7 56 -5 105 2 50 4 100 5 113 0 12 2 22 5 22 3 0 5 -57 5 -127z
m1805 77 c-3 -5 -11 -10 -16 -10 -6 0 -7 5 -4 10 3 6 11 10 16 10 6 0 7 -4 4
-10z m-1638 -57 c-3 -10 -5 -2 -5 17 0 19 2 27 5 18 2 -10 2 -26 0 -35z m1453
29 c0 -9 -57 -73 -127 -142 l-127 -125 113 123 c62 67 117 122 121 122 5 0 6
9 3 20 -3 11 0 20 6 20 6 0 11 -8 11 -18z m108 4 c-2 0 -68 -64 -148 -141 -79
-77 -110 -104 -69 -60 130 139 204 211 212 207 5 -2 7 -5 5 -6z m-1834 -37
c-3 -5 -10 -7 -15 -3 -5 3 -7 10 -3 15 3 5 10 7 15 3 5 -3 7 -10 3 -15z m1760
-80 c-49 -50 -111 -109 -139 -131 -27 -23 11 20 85 95 73 75 136 134 139 131
3 -2 -35 -45 -85 -95z m-1504 86 c0 -1 -14 -14 -32 -31 -18 -16 -26 -21 -19
-11 7 9 10 17 6 17 -4 0 -2 6 4 13 8 11 41 20 41 12z m1420 2 c0 -1 -26 -27
-57 -57 -32 -30 -47 -41 -33 -25 33 42 90 93 90 82z m-1523 -35 c-10 -10 -18
-32 -18 -48 l-2 -29 -4 28 c-4 25 18 67 35 67 3 0 -2 -8 -11 -18z m1613 -88
c-58 -58 -127 -124 -155 -146 -27 -23 16 25 96 105 80 81 149 147 155 147 5 0
-39 -48 -96 -106z m-30 -69 c-90 -90 -166 -162 -169 -159 -7 6 313 324 326
324 4 0 -66 -74 -157 -165z m-280 55 c-57 -55 -109 -100 -114 -100 -6 0 37 45
94 100 58 54 110 99 115 99 6 0 -37 -45 -95 -99z m-1220 86 c0 -2 -8 -10 -17
-17 -16 -13 -17 -12 -4 4 13 16 21 21 21 13z m20 -10 c0 -2 -8 -10 -17 -17
-16 -13 -17 -12 -4 4 13 16 21 21 21 13z m1753 -11 c-3 -9 -8 -14 -10 -11 -3
3 -2 9 2 15 9 16 15 13 8 -4z m-1676 -128 c-2 -23 -3 -1 -3 48 0 50 1 68 3 42
2 -26 2 -67 0 -90z m-180 81 c-3 -7 -5 -2 -5 12 0 14 2 19 5 13 2 -7 2 -19 0
-25z m1010 0 c68 -57 123 -112 123 -122 0 -6 -34 23 -75 64 l-75 74 -142 -3
c-78 -1 -146 -5 -151 -8 -5 -3 -15 -19 -23 -37 -10 -23 -13 -26 -14 -11 0 11
11 33 25 48 26 27 27 27 160 27 l134 0 38 -32z m-970 -35 c-3 -10 -5 -2 -5 17
0 19 2 27 5 18 2 -10 2 -26 0 -35z m1753 -8 c-24 -25 -46 -45 -49 -45 -3 0 15
20 39 45 24 25 46 45 49 45 3 0 -15 -20 -39 -45z m-1949 -27 c-11 -10 -13 -10
-7 0 4 6 3 12 -3 12 -5 0 -12 -6 -14 -12 -4 -8 -6 -7 -6 4 -1 19 20 30 34 17
5 -6 4 -14 -4 -21z m109 -40 c-1 -41 -4 -58 -9 -48 -8 14 -3 110 5 110 2 0 4
-28 4 -62z m1743 32 c-13 -5 -23 -14 -23 -20 0 -5 -5 -10 -10 -10 -7 0 -7 6 0
20 6 11 20 20 33 19 l22 0 -22 -9z m-835 -47 c-15 -2 -42 -2 -60 0 -18 2 -6 4
27 4 33 0 48 -2 33 -4z m69 1 c-3 -3 -12 -4 -19 -1 -8 3 -5 6 6 6 11 1 17 -2
13 -5z m695 -135 c5 -4 19 -4 30 -1 13 3 16 7 8 12 -8 5 -9 17 -2 41 l10 34 1
-37 c1 -23 6 -38 14 -38 6 0 -2 -9 -19 -19 -18 -11 -35 -25 -39 -31 -15 -25
-25 15 -23 95 2 79 2 80 5 15 2 -35 9 -67 15 -71z m-774 114 c-10 -2 -28 -2
-40 0 -13 2 -5 4 17 4 22 1 32 -1 23 -4z m709 -235 c-1 -134 -3 -184 -4 -113
l-3 130 -42 37 c-51 45 -47 60 4 17 36 -29 37 -29 35 -7 0 13 -6 26 -12 30 -6
5 -6 8 3 8 8 0 12 21 12 70 0 39 2 70 5 70 2 0 4 -109 2 -242z m220 135 c-3
-10 -5 -2 -5 17 0 19 2 27 5 18 2 -10 2 -26 0 -35z m50 -55 c-2 -18 -4 -4 -4
32 0 36 2 50 4 33 2 -18 2 -48 0 -65z m-1957 50 c0 -5 -9 -3 -21 4 -17 11 -22
10 -35 -6 -8 -11 -14 -16 -14 -11 0 5 7 16 16 26 13 15 20 16 35 6 10 -6 19
-15 19 -19z m-20 -12 c0 -8 -4 -17 -9 -20 -10 -7 -23 19 -14 28 11 11 23 6 23
-8z m813 -154 c4 -73 3 -111 -3 -107 -6 3 -10 56 -10 117 0 61 2 109 4 107 2
-2 6 -55 9 -117z m1002 98 c-10 -11 -20 -18 -23 -15 -7 6 18 35 31 35 5 0 2
-9 -8 -20z m35 -4 c0 -2 -7 -7 -16 -10 -8 -3 -12 -2 -9 4 6 10 25 14 25 6z
m-1490 -14 c0 -5 -66 -71 -147 -147 l-148 -138 145 146 c80 81 146 146 148
147 1 0 2 -4 2 -8z m1500 -22 c0 -5 -4 -10 -10 -10 -5 0 -10 5 -10 10 0 6 5
10 10 10 6 0 10 -4 10 -10z m-1500 -33 c0 -1 -48 -50 -107 -107 l-108 -105
105 108 c97 99 110 112 110 104z m-460 -21 c0 -3 -4 -8 -10 -11 -5 -3 -10 -1
-10 4 0 6 5 11 10 11 6 0 10 -2 10 -4z m2040 0 c0 -2 -8 -10 -17 -17 -16 -13
-17 -12 -4 4 13 16 21 21 21 13z m-1880 -61 c-24 -25 -48 -45 -53 -45 -9 0 83
89 93 90 2 0 -16 -20 -40 -45z m1697 -167 c-1 -40 -3 -10 -3 67 0 77 1 110 3
73 2 -37 2 -100 0 -140z m-1787 182 c0 -5 -5 -10 -11 -10 -5 0 -7 5 -4 10 3 6
8 10 11 10 2 0 4 -4 4 -10z m334 -222 c-31 -29 -63 -59 -70 -65 -7 -7 -16 -13
-20 -13 -5 0 13 22 39 48 39 39 45 50 35 61 -11 11 -10 12 1 6 9 -5 12 -3 9 6
-3 8 -1 23 5 34 6 11 11 37 11 57 1 22 9 47 21 60 l20 23 3 -82 3 -81 -57 -54z
m725 191 c50 0 93 -4 96 -10 4 -5 -36 -9 -99 -9 -89 0 -106 2 -106 16 0 8 4
12 10 9 5 -3 50 -6 99 -6z m796 -152 l7 -138 -179 -177 c-98 -97 -203 -197
-233 -222 l-55 -45 72 80 c39 44 128 136 196 204 85 84 124 129 120 140 -4 12
-2 13 4 3 7 -10 13 -8 26 6 16 18 21 66 26 256 2 75 9 30 16 -107z m-102 -330
c-114 -114 -217 -213 -228 -219 -11 -5 80 91 203 214 l222 223 2 125 2 125 3
-130 4 -129 -208 -209z m35 -45 c-123 -123 -245 -242 -273 -264 -27 -23 70 80
217 228 l268 269 2 140 2 140 3 -145 4 -144 -223 -224z m114 236 c-11 -11 -16
218 -5 235 4 6 9 -42 11 -107 1 -66 -1 -123 -6 -128z m-1512 105 c0 -14 12
-41 26 -60 l26 -34 -148 -147 c-81 -81 -119 -116 -83 -77 35 38 94 98 132 133
37 36 67 69 67 75 0 5 -9 2 -20 -8 -19 -17 -19 -17 -10 14 6 20 5 31 -2 31 -5
0 -68 -60 -140 -132 l-130 -133 130 139 c111 119 128 142 119 157 -8 13 -8 24
3 43 17 33 30 33 30 -1z m1159 -90 c-18 -20 -77 -78 -129 -130 l-95 -93 -85
-1 c-47 0 -104 0 -127 1 -30 1 -44 -3 -52 -17 -10 -17 -10 -17 -11 0 0 10 -8
17 -20 17 -11 0 -20 -5 -20 -11 0 -8 -4 -8 -13 -1 -7 6 -53 10 -102 10 -50 0
-122 0 -160 1 l-71 1 -104 101 c-88 85 -92 90 -25 31 44 -38 91 -82 104 -96
l24 -26 330 0 330 0 126 125 c120 119 174 166 100 88z m200 -39 c-23 -24 -45
-41 -48 -39 -3 3 14 25 37 48 23 24 43 49 43 57 1 9 3 8 6 -4 3 -12 -9 -33
-38 -62z m-1541 9 c-7 -10 -46 -49 -88 -88 l-75 -69 85 87 c86 89 100 101 78
70z m223 -30 c-5 -10 -76 -83 -157 -163 l-147 -145 153 163 c84 89 155 162
157 162 2 0 -1 -8 -6 -17z m-71 4 c0 -2 -10 -12 -22 -23 l-23 -19 19 23 c18
21 26 27 26 19z m-8 -144 c-61 -65 -136 -143 -168 -173 -47 -45 -42 -38 24 36
86 97 241 254 249 254 3 0 -44 -53 -105 -117z m-136 98 c-3 -5 -34 -32 -68
-61 l-63 -52 65 61 c64 60 76 69 66 52z m1784 -11 c-8 -5 -19 -10 -25 -10 -5
0 -3 5 5 10 8 5 20 10 25 10 6 0 3 -5 -5 -10z m-1529 -17 c-11 -20 -245 -251
-276 -273 -11 -7 47 55 130 138 82 84 151 152 153 152 1 0 -2 -8 -7 -17z
m-201 -6 c0 -1 -46 -45 -102 -96 l-103 -93 98 96 c87 85 107 103 107 93z
m1739 0 c-2 -1 -13 -9 -24 -17 -19 -14 -19 -14 -6 3 7 9 18 17 24 17 6 0 8 -1
6 -3z m-1518 -44 c-10 -18 -103 -110 -176 -173 -34 -29 50 63 147 162 32 32
43 36 29 11z m29 -112 c0 -44 -4 -83 -10 -86 -6 -4 -10 25 -10 79 0 51 4 86
10 86 6 0 10 -33 10 -79z m-440 66 c0 -2 -17 -19 -37 -38 l-38 -34 34 38 c33
34 41 42 41 34z m470 -82 c0 -50 -4 -85 -10 -85 -6 0 -10 35 -10 85 0 50 4 85
10 85 6 0 10 -35 10 -85z m-60 -9 l0 -54 -47 -15 c-43 -14 -46 -14 -25 0 17
12 22 26 24 62 l1 46 4 -40 c7 -68 23 -65 23 4 0 39 4 60 10 56 6 -3 10 -30
10 -59z m87 -69 c-2 -23 -3 -1 -3 48 0 50 1 68 3 42 2 -26 2 -67 0 -90z m30
-94 c-2 -38 -3 -7 -3 67 0 74 1 105 3 68 2 -38 2 -98 0 -135z m1172 144 c-19
-13 -36 -22 -39 -20 -8 7 41 43 58 43 8 0 0 -10 -19 -23z m-1142 -149 c-2 -29
-3 -6 -3 52 0 58 1 81 3 53 2 -29 2 -77 0 -105z m30 55 c-2 -16 -4 -5 -4 22 0
28 2 40 4 28 2 -13 2 -35 0 -50z m1173 10 c0 -21 -16 -15 -34 12 -24 37 -19
51 9 25 14 -13 25 -29 25 -37z m-830 -20 c0 -81 -5 -79 -14 5 -5 41 -3 62 4
62 6 0 10 -27 10 -67z m-246 35 c8 -14 7 -21 -6 -34 -30 -30 -75 9 -48 42 16
18 39 15 54 -8z m183 -90 c-2 -24 -4 -7 -4 37 0 44 2 63 4 43 2 -21 2 -57 0
-80z m110 -15 c-2 -21 -4 -4 -4 37 0 41 2 58 4 38 2 -21 2 -55 0 -75z m821 45
c-2 -6 -10 -14 -16 -16 -7 -2 -10 2 -6 12 7 18 28 22 22 4z m-1055 -52 c4 -10
1 -13 -8 -9 -8 3 -12 9 -9 14 7 12 11 11 17 -5z m827 -6 c-24 -15 -37 -11 -16
5 11 8 22 12 25 9 3 -3 -1 -9 -9 -14z m34 -51 c-3 -5 -10 -7 -15 -3 -5 3 -7
10 -3 15 3 5 10 7 15 3 5 -3 7 -10 3 -15z"/>
<path d="M1183 2023 c9 -2 25 -2 35 0 9 3 1 5 -18 5 -19 0 -27 -2 -17 -5z"/>
<path d="M995 2000 c-3 -6 1 -7 9 -4 18 7 21 14 7 14 -6 0 -13 -4 -16 -10z"/>
<path d="M938 1827 l-98 -102 0 -398 0 -397 23 -9 c12 -5 47 -35 77 -67 30
-31 48 -53 40 -49 -8 4 2 -9 23 -29 25 -24 43 -34 50 -29 7 5 54 8 105 7 78
-1 92 2 92 15 1 14 2 14 13 1 10 -12 42 -15 178 -15 l165 0 93 94 c79 80 92
97 83 112 -6 10 -7 19 -2 21 9 3 12 77 11 246 l-1 104 -148 -2 c-81 -1 -171
-4 -199 -7 l-53 -5 0 -42 0 -41 93 3 c50 1 99 -2 107 -8 12 -7 16 -38 18 -143
l4 -134 -32 -26 -32 -27 -207 0 -207 0 -46 48 c-25 26 -48 54 -50 62 -3 11
-11 8 -31 -12 -15 -15 -27 -23 -27 -18 0 5 14 19 30 32 17 12 30 28 30 36 0
12 -5 11 -22 -4 -13 -10 -17 -12 -11 -4 17 22 17 286 1 294 -10 5 -10 7 0 12
17 8 17 304 0 323 -11 11 -10 13 4 8 9 -3 23 2 33 13 16 18 15 19 -36 23 l-54
3 55 2 c46 2 60 7 87 32 18 17 35 30 38 30 3 0 5 2 5 5 0 3 0 11 0 19 0 8 -8
17 -17 19 -14 4 -13 5 4 6 13 1 24 -6 28 -18 5 -16 13 -18 53 -14 26 3 52 12
58 20 9 10 30 13 85 10 l74 -3 -73 -2 c-64 -2 -75 -5 -79 -21 -3 -11 -12 -22
-22 -25 -9 -2 29 -4 84 -5 241 0 212 6 273 -57 l54 -55 51 47 c29 26 54 49 56
51 3 2 -33 42 -79 88 l-85 85 -285 0 -285 0 -97 -103z m148 39 l-26 -35 23 -4
c12 -2 5 -4 -16 -4 l-38 0 38 39 c46 47 54 49 19 4z m422 -43 c-16 -2 -40 -2
-55 0 -16 2 -3 4 27 4 30 0 43 -2 28 -4z m117 -12 c3 -5 1 -12 -5 -16 -5 -3
-10 1 -10 9 0 18 6 21 15 7z m-647 -153 l-1 -43 -4 37 c-3 24 -10 38 -21 41
-12 3 -11 5 6 6 20 1 22 -3 20 -41z m-1 -155 c-2 -21 -4 -4 -4 37 0 41 2 58 4
38 2 -21 2 -55 0 -75z m-50 -86 l28 -32 -31 28 c-39 35 -51 35 -25 -2 13 -17
20 -43 19 -63 l-1 -33 -4 35 c-3 19 -18 51 -33 71 -29 36 -29 36 -6 32 13 -3
37 -19 53 -36z m-39 -42 c-3 -3 -9 2 -12 12 -6 14 -5 15 5 6 7 -7 10 -15 7
-18z m18 -133 c-10 -10 -16 -12 -16 -5 0 7 5 15 10 18 6 3 11 16 11 28 2 21 2
21 6 -2 3 -13 -2 -30 -11 -39z m852 -54 c-6 -18 -28 -21 -28 -4 0 9 7 16 16
16 9 0 14 -5 12 -12z m-763 -18 c3 -5 1 -10 -4 -10 -6 0 -11 5 -11 10 0 6 2
10 4 10 3 0 8 -4 11 -10z m-55 -63 c0 -2 -10 -12 -22 -23 l-23 -19 19 23 c18
21 26 27 26 19z m740 -17 c0 -5 -2 -10 -4 -10 -3 0 -8 5 -11 10 -3 6 -1 10 4
10 6 0 11 -4 11 -10z m-10 -84 c0 -3 -4 -8 -10 -11 -5 -3 -10 -1 -10 4 0 6 5
11 10 11 6 0 10 -2 10 -4z m-650 -121 c19 -19 32 -35 29 -35 -3 0 -20 16 -39
35 -19 19 -32 35 -29 35 3 0 20 -16 39 -35z m20 -60 c13 -14 21 -25 18 -25 -2
0 -15 11 -28 25 -13 14 -21 25 -18 25 2 0 15 -11 28 -25z m380 15 c0 -5 -4
-10 -10 -10 -5 0 -10 5 -10 10 0 6 5 10 10 10 6 0 10 -4 10 -10z m180 -40 c0
-5 -4 -10 -10 -10 -5 0 -10 5 -10 10 0 6 5 10 10 10 6 0 10 -4 10 -10z"/>
<path d="M320 1820 c0 -5 5 -10 10 -10 6 0 10 5 10 10 0 6 -4 10 -10 10 -5 0
-10 -4 -10 -10z"/>
<path d="M1044 385 c-7 -18 3 -35 21 -35 15 0 28 27 19 41 -8 14 -34 11 -40
-6z"/>
</g>
</svg>
